# xmcd
#
# Track frame offsets: 
#        150
#        20633
#        44513
#        64816
#        109592
#        137685
#        173747
#        208597
#        230734
#
# Disc length: 3858 seconds
#
# Revision: 0
# Processed by: cddbd v1.5.2PL0 Copyright (c) Steve Scherf et al.
# Submitted via: ExactAudioCopyFreeDBPlugin 1.0
#
DISCID=7e0f1009
DTITLE=Albert Collins  - Live From Austin TX '91
DYEAR=2012
DGENRE=Blues
TTITLE0=Mr. Collins, Mr. Collins
TTITLE1=My Woman Has A Black Cat Bone
TTITLE2=Iceman
TTITLE3=Lights Are On But Nobody's Home
TTITLE4=Put The Shoe On The Other Foot
TTITLE5=Put The Shoe On The Other Foot
TTITLE6=The Things That I Used To Do
TTITLE7=Head Rag
TTITLE8=Travelin' South
EXTD=
EXTT0=
EXTT1=
EXTT2=
EXTT3=
EXTT4=
EXTT5=
EXTT6=
EXTT7=
EXTT8=
PLAYORDER=
